<svg width="73" height="65" viewBox="0 0 73 65" fill="none" xmlns="http://www.w3.org/2000/svg">
<g opacity="0.9">
<path d="M67.8795 63.3685C67.6906 63.8875 67.116 64.1552 66.5985 63.9624C38.896 53.6375 15.539 34.1772 0.382956 8.79368C0.0998258 8.31949 0.259449 7.70601 0.735802 7.42654L12.466 0.544484C12.9423 0.26501 13.555 0.425353 13.8386 0.899246C27.157 23.1521 47.6427 40.2201 71.9342 49.3027C72.4515 49.4961 72.7198 50.0697 72.5309 50.5887L67.8795 63.3685Z" fill="#1E1C44"/>
<path d="M67.8795 63.3685C67.6906 63.8875 67.116 64.1552 66.5985 63.9624C38.896 53.6375 15.539 34.1772 0.382956 8.79368C0.0998258 8.31949 0.259449 7.70601 0.735802 7.42654L12.466 0.544484C12.9423 0.26501 13.555 0.425354 13.8386 0.899246C27.157 23.1521 47.6427 40.2201 71.9342 49.3027C72.4515 49.4961 72.7198 50.0697 72.5309 50.5887L67.8795 63.3685Z" fill="#1E1C44"/>
</g>
</svg>
